<svg xmlns="http://www.w3.org/2000/svg" xmlns:xlink="http://www.w3.org/1999/xlink" viewBox="0 0 1920 1781"><defs><style>.cls-1,.cls-2{fill:none;}.cls-2{stroke:#dfe0e0;stroke-miterlimit:10;stroke-width:0.5px;}.cls-3{fill:#f2f2f3;}.cls-4{fill:url(#New_Pattern_2);}</style><pattern id="New_Pattern_2" data-name="New Pattern 2" width="94.64" height="63" patternTransform="translate(1135.7 388.83)" patternUnits="userSpaceOnUse" viewBox="0 0 94.64 63"><rect class="cls-1" width="94.64" height="63"/><path class="cls-2" d="M101.29,58.45A8,8,0,0,1,102.7,63a8.07,8.07,0,1,1-8.22-8.07h8.24v.78A3.34,3.34,0,0,1,101.29,58.45ZM98.51,63a3.89,3.89,0,1,0-3.88,3.89A3.89,3.89,0,0,0,98.51,63Z"/><circle class="cls-2" cx="94.63" cy="63" r="1.71"/><path class="cls-2" d="M6.65,58.45A8,8,0,0,1,8.06,63,8.07,8.07,0,0,1,0,71.07,8.07,8.07,0,0,1-8.09,63,8.08,8.08,0,0,1-.16,54.93H8.08v.78A3.34,3.34,0,0,1,6.65,58.45ZM3.87,63A3.89,3.89,0,0,0,0,59.11,3.89,3.89,0,0,0-3.9,63,3.89,3.89,0,0,0,0,66.89,3.89,3.89,0,0,0,3.87,63Z"/><circle class="cls-2" cx="-0.01" cy="63" r="1.71"/><path class="cls-2" d="M101.29-4.55A8,8,0,0,1,102.7,0a8.07,8.07,0,0,1-8.07,8.07A8.07,8.07,0,0,1,86.56,0a8.07,8.07,0,0,1,7.92-8.07h8.24v.78A3.34,3.34,0,0,1,101.29-4.55ZM98.51,0a3.89,3.89,0,0,0-3.88-3.89A3.89,3.89,0,0,0,90.74,0a3.89,3.89,0,0,0,3.89,3.89A3.89,3.89,0,0,0,98.51,0Z"/><circle class="cls-2" cx="94.63" r="1.71"/><path class="cls-2" d="M54,27a8,8,0,0,1,1.41,4.55,8.07,8.07,0,1,1-8.22-8.07H55.4v.78A3.34,3.34,0,0,1,54,27ZM51.19,31.5a3.89,3.89,0,1,0-3.88,3.89A3.89,3.89,0,0,0,51.19,31.5Z"/><circle class="cls-2" cx="47.31" cy="31.5" r="1.71"/><path class="cls-2" d="M6.65-4.55A8,8,0,0,1,8.06,0,8.07,8.07,0,0,1,0,8.07,8.07,8.07,0,0,1-8.09,0,8.08,8.08,0,0,1-.16-8.07H8.08v.78A3.34,3.34,0,0,1,6.65-4.55ZM3.87,0A3.89,3.89,0,0,0,0-3.89,3.89,3.89,0,0,0-3.9,0,3.89,3.89,0,0,0,0,3.89,3.89,3.89,0,0,0,3.87,0Z"/><circle class="cls-2" cx="-0.01" r="1.71"/></pattern></defs><g id="Layer_2" data-name="Layer 2"><g id="Layer_1-2" data-name="Layer 1"><rect class="cls-3" width="1920" height="1781"/><rect class="cls-4" width="1920" height="1781"/></g></g></svg>